<?xml version="1.0" encoding="iso-8859-1"?>
<!-- Generator: Adobe Illustrator 19.0.0, SVG Export Plug-In . SVG Version: 6.00 Build 0)  -->
<svg version="1.1" id="Capa_1" xmlns="http://www.w3.org/2000/svg" xmlns:xlink="http://www.w3.org/1999/xlink" x="0px" y="0px"
	 viewBox="0 0 512 512" style="enable-background:new 0 0 512 512;" xml:space="preserve">
<g>
	<g>
		<path d="M275.999,305.991c-5.52,0-10,4.48-10,10c0,5.52,4.48,10,10,10c5.52,0,10-4.48,10-10
			C285.999,310.471,281.519,305.991,275.999,305.991z"/>
	</g>
</g>
<g>
	<g>
		<path d="M255.999,185.991c-5.52,0-10,4.48-10,10c0,5.52,4.48,10,10,10s10-4.48,10-10
			C265.999,190.471,261.519,185.991,255.999,185.991z"/>
	</g>
</g>
<g>
	<g>
		<path d="M255.999,145.991c-27.57,0-50,22.43-50,50s22.43,50,50,50s50-22.429,50-50
			C305.999,168.421,283.569,145.991,255.999,145.991z M255.999,225.991c-16.542,0-30-13.458-30-30s13.458-30,30-30s30,13.458,30,30
			S272.541,225.991,255.999,225.991z"/>
	</g>
</g>
<g>
	<g>
		<path d="M448.999,391.991c-26.479,0-50.812,16.99-59.496,40.131c-5.778-0.408-11.578,0.185-17.143,1.763
			c-11.326-13.837-28.125-21.894-46.362-21.894c-6.918,0-13.651,1.155-20,3.397v-57.037l11.238-22.476l30.442,45.662
			c2.198,3.297,6.168,5.02,10.14,4.286c3.933-0.728,7.054-3.729,7.935-7.63l13.884-61.491c9.841-30.209-0.325-62.625-24.832-78.982
			c-5.026-3.351-10.393-5.994-16.024-7.928l3.811-25.917c0.011-0.072,0.021-0.144,0.029-0.215
			c5.739-45.949-2.172-97.942-25.193-137.495c-24.15-41.434-55.285-64.073-55.596-64.296c-3.738-2.684-8.869-2.434-12.368,0.552
			c-0.172,0.146-0.455,0.373-0.837,0.682c-37.579,30.398-66.834,73.78-77.777,122.685c-5.302,23.702-4.547,53.273-2.073,73.045
			c0.008,0.068,0.018,0.136,0.027,0.204l4.491,30.735c-5.662,1.937-11.055,4.587-16.107,7.952
			c-24.503,16.354-34.669,48.77-24.828,78.979l13.884,61.491c0.881,3.901,4.002,6.903,7.935,7.63
			c3.932,0.731,7.921-0.958,10.14-4.286l30.442-45.662l11.238,22.476v57.057c-6.344-2.249-13.073-3.417-20-3.417
			c-18.237,0-35.036,8.057-46.362,21.895c-5.567-1.579-11.366-2.172-17.142-1.765c-8.684-23.14-33.017-40.13-59.495-40.13
			c-34.149,0-63,27.477-63,60s28.851,60,63,60h386c34.149,0,63-27.477,63-60S483.148,391.991,448.999,391.991z M335.799,250.07
			c2.742,1.184,5.387,2.608,7.908,4.289c16.887,11.271,23.95,35.038,16.794,56.512c-0.105,0.315-0.194,0.635-0.267,0.958
			l-8.853,39.209l-24.93-37.395L335.799,250.07z M256.113,22.915c18.628,15.986,36.249,38.255,47.053,58.777
			c-12.832,11.692-29.673,18.299-47.167,18.299c-17.539,0-34.411-6.636-47.263-18.384C220.615,59.82,237.128,39.345,256.113,22.915z
			 M160.616,351.038l-8.853-39.209c-0.073-0.324-0.162-0.644-0.267-0.958c-7.155-21.474-0.092-45.241,16.787-56.506
			c2.542-1.693,5.209-3.126,7.974-4.315l9.291,63.59L160.616,351.038z M204.644,305.991l-16.035-109.742
			c-2.832-22.723-2.143-48.654,1.758-66.094c2.267-10.133,5.449-20.128,9.457-29.862c15.848,12.644,35.658,19.699,56.175,19.699
			c20.274,0,39.872-6.896,55.623-19.263c11.191,30.171,15.357,66.656,11.168,100.347l-16.451,111.876l-16.52,33.04h-67.64v-0.001
			l-10-20h23.82c5.523,0,10-4.477,10-10s-4.477-10-10-10H204.644z M448.999,491.991h-386c-22.907,0-43-18.691-43-40
			c0-21.309,20.093-40,43-40c17.347,0,33.79,10.924,40.122,25.552c-4.583,2.363-8.808,5.424-12.48,9.104
			c-3.901,3.909-3.895,10.241,0.014,14.142s10.24,3.895,14.142-0.014c3.653-3.66,8.196-6.318,13.146-7.688
			c0.001,0,0.002-0.001,0.003-0.001c0.007-0.002,0.015-0.004,0.022-0.006c7.025-1.943,14.486-1.283,21.025,1.867
			c3.049,1.463,5.809,3.422,8.204,5.824c3.886,3.898,10.218,3.934,14.142,0.022c3.911-3.899,3.921-10.231,0.022-14.142
			c-1.104-1.108-2.26-2.154-3.455-3.147c7.391-7.322,17.366-11.513,28.093-11.513c7.145,0,13.974,1.846,20,5.373v24.627
			c0,5.523,4.477,10,10,10s10-4.477,10-10c0-12.751,0-81.437,0-96h60c0,11.615,0,84.407,0,96c0,5.523,4.477,10,10,10s10-4.477,10-10
			v-24.654c6.042-3.509,12.87-5.346,20-5.346c10.727,0,20.702,4.191,28.093,11.513c-1.195,0.993-2.351,2.039-3.455,3.147
			c-3.899,3.911-3.889,10.243,0.022,14.142c3.898,3.887,10.231,3.902,14.142-0.022c2.395-2.402,5.154-4.361,8.218-5.832
			c6.532-3.146,14.002-3.804,21.041-1.851c4.944,1.369,9.487,4.026,13.14,7.687c3.901,3.909,10.232,3.916,14.142,0.014
			c3.909-3.901,3.916-10.233,0.014-14.142c-3.673-3.68-7.898-6.741-12.48-9.104c6.332-14.628,22.776-25.552,40.122-25.552
			c22.907,0,43,18.691,43,40C491.998,473.3,471.906,491.991,448.999,491.991z"/>
	</g>
</g>
<g>
</g>
<g>
</g>
<g>
</g>
<g>
</g>
<g>
</g>
<g>
</g>
<g>
</g>
<g>
</g>
<g>
</g>
<g>
</g>
<g>
</g>
<g>
</g>
<g>
</g>
<g>
</g>
<g>
</g>
</svg>
